# xmcd CD database file
#
# Track frame offsets:
#	150
#	21685
#	48077
#
# Disc length: 926 seconds
#
# Revision: 0
# Processed by: cddbd v1.5.1PL2 Copyright (c) Steve Scherf et al.
# Submitted via: CDex 1.51
#
DISCID=20039c03
DTITLE=神崎まき - ドライヴに行こう〜ＭＢＳ系全国ネット「ダウトを探せＲ」エンディングテーマ曲〜
DYEAR=1995
DGENRE=JPop
TTITLE0=ドライヴに行こう
TTITLE1=もう一度抱きしめて
TTITLE2=ドライヴに行こう（オリジナル・カラオケ）
EXTD=YEAR: 1995/6/21
EXTT0=
EXTT1=
EXTT2=
PLAYORDER=
